<svg t="1772517511118" class="icon" viewBox="0 0 1024 1024" version="1.1" xmlns="http://www.w3.org/2000/svg" p-id="7406" width="256" height="256">
    <path d="M413.669 592.247h-51.991v-11.302c0-4.521-4.521-13.563-11.303-31.647-11.302-29.386-18.084-29.386-27.126-29.386h-27.125v38.428c0 9.042 0 15.823 2.26 22.605l2.26 13.563h-45.21l2.261-13.563c2.26-6.782 2.26-11.303 2.26-22.605V445.316c0-9.042 0-15.824-2.26-22.605l-2.26-13.563h81.377c36.168 0 58.773 20.344 58.773 51.991 0 15.823-4.521 29.386-15.823 38.428-2.26 2.26-4.521 4.521-6.782 4.521 2.26 4.521 6.782 9.042 9.042 13.563 4.521 9.042 11.303 20.345 15.823 36.168 4.521 6.781 6.782 13.563 9.042 18.084l6.782 20.344zM296.124 483.744h38.428c6.781 0 11.302-2.26 15.823-6.782 2.26-2.26 4.521-4.52 4.521-13.562s-2.26-15.824-18.084-15.824h-40.688v36.168z" fill="#1296db" p-id="7407"></path>
    <path d="M452.097 592.247h-47.47l2.26-13.563c0-6.781 2.26-11.302 2.26-22.605V443.055c0-9.042 0-15.823-2.26-22.605l-2.26-13.563h92.68c11.302 0 15.823 0 22.605-2.26l13.563-2.26v49.73l-13.563-2.26c-6.782 0-11.303-2.26-22.605-2.26h-49.73v31.646h38.427c9.042 0 15.824 0 22.605-2.26l13.563-2.261v45.21l-13.563-2.26c-6.781 0-11.302-2.261-22.605-2.261h-38.428v40.688c0 11.303 0 15.824 2.26 22.605l2.261 13.563z" fill="#1296db" p-id="7408"></path>
    <path d="M578.684 592.247h-47.47l2.26-13.563c2.261-6.781 2.261-11.302 2.261-22.605V443.055c0-9.042 0-13.563-2.26-22.605l-2.26-13.563h47.47l-2.261 13.563c-2.26 6.782-2.26 13.563-2.26 22.605V556.08c0 9.042 0 15.824 2.26 22.605l2.26 13.563z m6.782 2.26l2.26-13.562c2.26-6.782 2.26-13.563 2.26-22.605V445.316c0-9.042 0-13.563-2.26-22.605l-2.26-13.563h70.075c54.251 0 85.898 33.907 85.898 90.42 0 29.386-9.042 54.251-24.865 70.074-13.563 13.563-33.907 22.605-58.773 22.605H599.03l-13.563 2.26z m42.949-38.428h27.126c13.563 0 24.865-4.52 31.647-11.302 9.042-9.042 13.563-24.865 13.563-42.95 0-18.083-4.521-33.906-13.563-42.948-6.782-6.782-18.084-11.303-31.647-11.303h-29.386V556.08z" fill="#1296db" p-id="7409"></path>
    <path d="M822.817 1021.74H153.713c-83.638 0-151.453-67.815-151.453-151.453V153.713C2.26 70.075 70.075 2.26 153.713 2.26h716.574c83.638 0 151.453 67.815 151.453 151.453v716.574c0 6.781-4.521 13.563-9.042 18.084L836.38 1017.219c-2.26 4.52-6.782 4.52-13.563 4.52zM153.713 47.47C94.94 47.47 47.47 94.94 47.47 153.713v716.574c0 58.773 47.47 106.243 106.243 106.243h662.322L976.53 858.985V153.713c0-58.773-47.47-106.243-106.243-106.243H153.713z" fill="#1296db" p-id="7410"></path>
    <path d="M766.305 931.32H219.267c-70.075 0-126.587-56.512-126.587-126.587V219.267c0-70.075 56.512-126.587 126.587-126.587h585.466c70.075 0 126.587 56.512 126.587 126.587v585.466c0 6.781-4.52 13.563-9.042 18.084l-142.41 103.982c-4.521 4.521-9.042 4.521-13.563 4.521zM219.267 137.89c-45.21 0-81.377 36.167-81.377 81.377v585.466c0 45.21 36.167 81.377 81.377 81.377h537.996l128.847-92.68V219.267c0-45.21-36.167-81.377-81.377-81.377H219.267z" fill="#1296db" p-id="7411"></path>
    <path d="M709.792 845.422h-424.97c-56.513 0-103.983-47.47-103.983-103.983V284.821c0-56.512 47.47-103.982 103.982-103.982H741.44c56.512 0 103.983 47.47 103.983 103.982v205.704c0 13.563-9.042 22.605-22.605 22.605s-22.605-9.042-22.605-22.605V284.821c0-31.647-27.126-58.772-58.773-58.772H284.821c-31.647 0-58.772 27.125-58.772 58.772V741.44c0 31.647 27.125 58.773 58.772 58.773h427.232c13.563 0 22.605 9.042 22.605 22.605s-11.303 22.605-24.866 22.605z" fill="#1296db" p-id="7412"></path>
    <path d="M822.817 517.651h-54.252c-13.563 0-22.605-9.042-22.605-22.605s9.042-22.604 22.605-22.604h54.252c13.563 0 22.605 9.041 22.605 22.604s-11.303 22.605-22.605 22.605zM716.574 843.161c-6.782 0-13.563-2.26-18.084-9.042-6.781-11.302-4.52-24.865 4.521-31.647l97.2-70.075c11.303-6.781 24.866-4.52 31.648 4.521 6.781 11.303 4.52 24.866-4.521 31.647l-97.201 70.075c-4.521 4.521-9.042 4.521-13.563 4.521z" fill="#1296db" p-id="7413"></path>
</svg>
